#!OML:ASF E:\emotionWalksFemale\Project 1\Capture day 1\Session 1\Female1.ASF
:FULLY-SPECIFIED
:DEGREES
1570
root 8.80353 15.3577 -26.4247 -184.473 -5.60973 -182.103
lowerback 0.969982 0.971255 1.55341
upperback -4.55748 1.15418 -0.672215
thorax -5.20648 0.417468 -1.6219
lowerneck -1.11818 -3.4141 -8.57866
upperneck 14.7695 -5.62795 5.09887
head 4.98971 -3.2544 2.69682
rclavicle 3.18055e-015 5.1684e-015
rhumerus -48.0735 3.86364 -82.5538
rradius 37.4778
rwrist 12.302
rhand 2.77968 -56.0799
rfingers 7.12502
rthumb 28.25 996.03
lclavicle 3.18055e-015 5.1684e-015
lhumerus -41.3572 6.02316 76.6624
lradius 35.7274
lwrist -21.0254
lhand -4.89108 -31.8284
lfingers 7.12502
lthumb 20.8981 -2.93408
rfemur -18.1918 -7.51378 15.1689
rtibia 75.4035
rfoot -6.46466 -7.55449
rtoes -10.2761
lfemur 5.52699 -7.88241 -36.3885
ltibia 15.9556
lfoot -21.4988 21.0806
ltoes 13.5744
1571
root 8.79251 15.3437 -26.477 -184.478 -5.82657 -182.382
lowerback 1.07925 0.755193 1.31633
upperback -4.61547 0.852555 -0.701054
thorax -5.34437 0.273817 -1.50472
lowerneck -1.48285 -3.37986 -8.63588
upperneck 15.2847 -5.57299 4.92488
head 5.20416 -3.25316 2.64387
rclavicle -1.68967e-015 -5.56597e-015
rhumerus -48.2014 3.71652 -82.2756
rradius 37.5193
rwrist 12.3583
rhand 2.78035 -55.888
rfingers 7.12502
rthumb 28.2506 996.222
lclavicle -1.68967e-015 -5.56597e-015
lhumerus -41.2415 5.95708 76.749
lradius 35.5978
lwrist -20.8962
lhand -5.0992 -32.2339
lfingers 7.12502
lthumb 20.6981 -3.31765
rfemur -18.9701 -6.96744 14.9277
rtibia 74.9828
rfoot -8.13922 -8.74793
rtoes -7.59023
lfemur 5.87453 -7.90298 -36.7666
ltibia 15.8459
lfoot -19.2652 20.859
ltoes 11.2057
1572
root 8.7792 15.3268 -26.5344 -184.568 -6.06849 -182.634
lowerback 1.00441 0.483735 1.02195
upperback -4.51197 0.485363 -0.658852
thorax -5.20823 0.109721 -1.27434
lowerneck -0.82998 -2.91051 -8.14048
upperneck 14.655 -4.93049 4.63136
head 4.8347 -2.92446 2.52364
rclavicle -7.00716e-015 3.97569e-016
rhumerus -48.0132 3.82921 -81.9992
rradius 37.2729
rwrist 12.4635
rhand 2.62378 -55.3944
rfingers 7.12502
rthumb 28.101 996.691
lclavicle -7.00716e-015 3.97569e-016
lhumerus -41.1015 6.10394 76.8303
lradius 35.6029
lwrist -20.9353
lhand -5.03641 -32.2034
lfingers 7.12502
lthumb 20.7584 -3.2937
rfemur -19.5309 -6.44856 14.6888
rtibia 74.3851
rfoot -9.70108 -9.93601
rtoes -5.56522
lfemur 6.40332 -8.06929 -37.1864
ltibia 15.6711
lfoot -19.5931 20.7434
ltoes 12.4171
1573
root 8.77027 15.3133 -26.583 -184.591 -6.33864 -182.797
lowerback 1.09408 0.19206 0.766974
upperback -4.463 0.0932258 -0.608587
thorax -5.21996 -0.0706857 -1.05817
lowerneck -1.14501 -2.74399 -7.53362
upperneck 14.8268 -4.62235 3.95172
head 4.89296 -2.77638 2.22213
rclavicle -8.94531e-016 -4.77083e-015
rhumerus -47.7829 4.06374 -81.8566
rradius 36.9893
rwrist 12.34
rhand 2.72811 -55.1063
rfingers 7.12502
rthumb 28.2007 996.995
lclavicle -8.94531e-016 -4.77083e-015
lhumerus -41.0113 6.20095 76.8754
lradius 35.8491
lwrist -20.9916
lhand -4.74499 -31.9942
lfingers 7.12502
lthumb 21.0384 -3.11544
rfemur -20.2243 -5.75431 14.6168
rtibia 73.6143
rfoot -11.0693 -11.1544
rtoes -3.12685
lfemur 6.71918 -8.24616 -37.4557
ltibia 15.6558
lfoot -19.7848 20.6673
ltoes 12.5555
1574
root 8.76409 15.3078 -26.6301 -184.613 -6.52416 -182.741
lowerback 1.33379 -0.039174 0.721025
upperback -4.51578 -0.211898 -0.507174
thorax -5.41934 -0.218786 -0.909699
lowerneck -1.31903 -2.60206 -7.14844
upperneck 14.9788 -4.38893 3.51755
head 4.93847 -2.66876 2.03225
rclavicle -2.08724e-015 1.19271e-014
rhumerus -47.8255 4.19709 -81.7028
rradius 36.9124
rwrist 12.0918
rhand 2.7984 -55.0149
rfingers 7.12502
rthumb 28.2679 997.098
lclavicle -2.08724e-015 1.19271e-014
lhumerus -40.8014 6.44274 76.8311
lradius 35.6719
lwrist -21.3288
lhand -4.93768 -32.3623
lfingers 7.12502
lthumb 20.8533 -3.46299
rfemur -20.9659 -4.84618 14.8042
rtibia 72.6663
rfoot -12.4037 -12.2311
rtoes -0.0492906
lfemur 6.8789 -8.29698 -37.431
ltibia 15.7797
lfoot -19.8105 20.6336
ltoes 11.4763
